# xmcd
#
# Track frame offsets:
#	150
#	24975
#	45422
#	70107
#	87127
#	110492
#	137160
#	162795
#	181092
#	195422
#	202025
#	219165
#
# Disc length: 3165 seconds
#
# Revision: 1
# Processed by: cddbd v1.5.1PL0 Copyright (c) Steve Scherf et al.
# Submitted via: CDex 1.50Beta5
#
DISCID=960c5b0c
DTITLE=沢田聖子 - 海からの贈り物-LE DAUPHIN-
DYEAR=1993
DGENRE=
TTITLE0=少年とドルフィン
TTITLE1=約束の場所
TTITLE2=心の扉
TTITLE3=すべては君のためだけに
TTITLE4=青春のDA・DA・DAN
TTITLE5=負けないで泣かないで
TTITLE6=あなたからF.O.
TTITLE7=好きです
TTITLE8=家族のテーブル
TTITLE9=海からのメッセージ
TTITLE10=地球の行方
TTITLE11=海と珊瑚とクリスマス
EXTD=
EXTT0=
EXTT1=
EXTT2=
EXTT3=
EXTT4=
EXTT5=
EXTT6=
EXTT7=
EXTT8=
EXTT9=
EXTT10=
EXTT11=
PLAYORDER=
